<?xml version="1.0" encoding="utf-8"?>
<!-- Generator: Adobe Illustrator 16.0.4, SVG Export Plug-In . SVG Version: 6.00 Build 0)  -->
<!DOCTYPE svg PUBLIC "-//W3C//DTD SVG 1.1//EN" "http://www.w3.org/Graphics/SVG/1.1/DTD/svg11.dtd">
<svg version="1.1" id="Capa_1" xmlns="http://www.w3.org/2000/svg" xmlns:xlink="http://www.w3.org/1999/xlink" x="0px" y="0px"
	 width="23.305px" height="20.852px" viewBox="0 0 23.305 20.852" enable-background="new 0 0 23.305 20.852" xml:space="preserve">
<g>
	<path d="M10.593,7.757c-0.149,0.205-0.225,0.435-0.225,0.681c0,0.229,0.069,0.438,0.206,0.635c0.137,0.195,0.344,0.352,0.624,0.471
		V7.319h-0.001C10.944,7.408,10.743,7.552,10.593,7.757z"/>
	<path d="M19.548,0.385c-3.875-1.384-6.587,1.266-7.896,3.035H11.65C10.341,1.65,7.63-0.998,3.755,0.385
		c-3.757,1.343-5.729,7.274-0.89,13.206c3.457,4.24,7.015,6.377,8.785,7.26h0.001c1.771-0.883,5.329-3.02,8.787-7.26
		C25.278,7.66,23.304,1.728,19.548,0.385z M14.092,14.603c-0.473,0.532-1.127,0.86-1.965,0.99v1.202h-0.93v-1.184
		c-0.742-0.09-1.345-0.365-1.805-0.825c-0.461-0.462-0.759-1.113-0.885-1.955l1.679-0.19c0.067,0.342,0.195,0.639,0.383,0.885
		c0.187,0.249,0.396,0.429,0.628,0.539v-2.691c-0.84-0.239-1.456-0.603-1.85-1.09C8.956,9.798,8.759,9.207,8.759,8.513
		c0-0.703,0.222-1.295,0.666-1.771c0.443-0.478,1.035-0.754,1.772-0.827V5.277h0.93v0.637c0.686,0.081,1.229,0.314,1.633,0.7
		c0.403,0.385,0.662,0.9,0.774,1.544l-1.628,0.214c-0.103-0.507-0.362-0.853-0.779-1.031v2.513c1.033,0.276,1.736,0.639,2.11,1.083
		c0.373,0.442,0.559,1.013,0.559,1.705C14.796,13.419,14.563,14.074,14.092,14.603z"/>
	<path d="M12.125,11.65v2.517c0.323-0.067,0.585-0.222,0.788-0.457c0.204-0.237,0.304-0.517,0.304-0.84
		c0-0.287-0.084-0.534-0.255-0.741C12.793,11.922,12.513,11.763,12.125,11.65z"/>
</g>
</svg>
