<?xml version="1.0" encoding="utf-8"?>
<!-- Generator: Adobe Illustrator 16.0.4, SVG Export Plug-In . SVG Version: 6.00 Build 0)  -->
<!DOCTYPE svg PUBLIC "-//W3C//DTD SVG 1.1//EN" "http://www.w3.org/Graphics/SVG/1.1/DTD/svg11.dtd">
<svg version="1.1" id="Capa_1" xmlns="http://www.w3.org/2000/svg" xmlns:xlink="http://www.w3.org/1999/xlink" x="0px" y="0px"
	 width="512px" height="512px" viewBox="0 0 512 512" enable-background="new 0 0 512 512" xml:space="preserve">
<path d="M256,415.946c-9.577,0-19.154-4.958-29.071-14.875c-3.905-3.905-3.905-10.237,0-14.144c3.905-3.904,10.237-3.904,14.143,0
	C247.175,393.033,252.058,396,256,396c3.941,0,8.825-2.967,14.93-9.07c3.905-3.904,10.235-3.904,14.143,0
	c3.904,3.904,3.904,10.236,0,14.143C275.154,410.988,265.577,415.946,256,415.946z M0,262.746c0,24.945,2.133,47.561,6.4,67.841
	s10.267,37.87,18,52.767c7.733,14.896,17.511,27.951,29.333,39.17c11.822,11.218,24.666,20.46,38.533,27.729
	c13.867,7.268,29.733,13.148,47.6,17.633c17.866,4.487,36.044,7.628,54.533,9.423c18.489,1.795,38.845,2.692,61.067,2.692
	s42.621-0.895,61.199-2.69c18.578-1.795,36.801-4.936,54.666-9.423c17.867-4.486,33.779-10.364,47.734-17.633
	c13.954-7.269,26.889-16.513,38.799-27.729c11.912-11.219,21.734-24.274,29.467-39.17c7.735-14.897,13.78-32.487,18.135-52.767
	c4.355-20.28,6.533-42.894,6.533-67.84c0-44.69-13.868-83.186-41.6-115.491c1.6-4.308,2.977-9.243,4.133-14.807
	c1.153-5.564,2.266-13.416,3.332-23.556c1.068-10.141,0.668-21.852-1.199-35.132c-1.867-13.282-5.377-26.832-10.533-40.651l-4-0.809
	c-2.666-0.538-7.021-0.359-13.065,0.54c-6.043,0.897-13.111,2.511-21.199,4.845c-8.088,2.332-18.533,6.954-31.334,13.864
	C383.734,58.461,370.223,67.211,356,77.8c-24.178-7.359-57.51-15.058-100-15.058c-42.488,0-75.911,7.698-100.265,15.057
	c-14.223-10.59-27.778-19.294-40.667-26.114c-12.89-6.821-23.201-11.487-30.934-13.999c-7.734-2.512-14.889-4.128-21.467-4.845
	C56.089,32.123,51.866,31.898,50,32.168c-1.866,0.269-3.244,0.583-4.133,0.942c-5.157,13.82-8.712,27.37-10.668,40.652
	c-1.955,13.28-2.4,24.946-1.333,34.996c1.067,10.051,2.222,17.949,3.467,23.691c1.245,5.743,2.667,10.679,4.267,14.807
	C13.867,179.381,0,217.877,0,262.746z M68.268,319.702c0-29.011,10.666-55.319,32-78.928c6.4-7.203,13.823-12.656,22.267-16.356
	c8.445-3.701,18.044-5.803,28.8-6.303s21.022-0.4,30.8,0.3c9.778,0.701,21.867,1.651,36.267,2.851
	c14.399,1.202,26.844,1.801,37.333,1.801c10.488,0,22.934-0.6,37.332-1.801c14.403-1.2,26.491-2.15,36.269-2.851
	c9.78-0.7,20.045-0.8,30.801-0.3c10.756,0.501,20.401,2.602,28.935,6.303c8.532,3.7,16,9.153,22.399,16.356
	c21.332,23.609,32,49.917,32,78.928c0,17.006-1.776,32.162-5.334,45.467c-3.555,13.306-8.045,24.458-13.467,33.461
	c-5.422,9.004-13.024,16.609-22.799,22.811c-9.779,6.202-19.246,11.005-28.4,14.404c-9.155,3.4-20.979,6.053-35.467,7.953
	c-14.491,1.898-27.467,3.051-38.937,3.45c-11.467,0.4-25.909,0.6-43.332,0.6c-17.422,0-31.822-0.2-43.2-0.6s-24.311-1.552-38.8-3.45
	c-14.489-1.9-26.311-4.552-35.467-7.953c-9.155-3.4-18.622-8.202-28.4-14.404c-9.778-6.202-17.378-13.807-22.8-22.811
	c-5.423-9.003-9.912-20.155-13.467-33.461C70.046,351.864,68.268,336.708,68.268,319.702z M128,304.002c0,26.51,14.327,48,32,48
	s32-21.49,32-48s-14.327-48-32-48S128,277.492,128,304.002z M320,304.002c0,26.51,14.327,48,32,48s32-21.49,32-48s-14.327-48-32-48
	S320,277.492,320,304.002z"/>
</svg>
