<?xml version="1.0" encoding="UTF-8" standalone="no"?>
<!-- Created with Inkscape (http://www.inkscape.org/) -->

<svg
   xmlns:dc="http://purl.org/dc/elements/1.1/"
   xmlns:cc="http://creativecommons.org/ns#"
   xmlns:rdf="http://www.w3.org/1999/02/22-rdf-syntax-ns#"
   xmlns:svg="http://www.w3.org/2000/svg"
   xmlns="http://www.w3.org/2000/svg"
   xmlns:sodipodi="http://sodipodi.sourceforge.net/DTD/sodipodi-0.dtd"
   xmlns:inkscape="http://www.inkscape.org/namespaces/inkscape"
   width="88.238747"
   height="63.995197"
   id="svg18290"
   version="1.1"
   inkscape:version="0.48.3.1 r9886"
   sodipodi:docname="New document 36">
  <defs
     id="defs18292" />
  <sodipodi:namedview
     id="base"
     pagecolor="#ffffff"
     bordercolor="#666666"
     borderopacity="1.0"
     inkscape:pageopacity="0.0"
     inkscape:pageshadow="2"
     inkscape:zoom="0.35"
     inkscape:cx="399.11937"
     inkscape:cy="-139.43097"
     inkscape:document-units="px"
     inkscape:current-layer="layer1"
     showgrid="false"
     fit-margin-top="0"
     fit-margin-left="0"
     fit-margin-right="0"
     fit-margin-bottom="0"
     inkscape:window-width="483"
     inkscape:window-height="421"
     inkscape:window-x="36"
     inkscape:window-y="331"
     inkscape:window-maximized="0" />
  <metadata
     id="metadata18295">
    <rdf:RDF>
      <cc:Work
         rdf:about="">
        <dc:format>image/svg+xml</dc:format>
        <dc:type
           rdf:resource="http://purl.org/dc/dcmitype/StillImage" />
        <dc:title></dc:title>
      </cc:Work>
    </rdf:RDF>
  </metadata>
  <g
     inkscape:label="Layer 1"
     inkscape:groupmode="layer"
     id="layer1"
     transform="translate(24.119373,-328.93601)">
    <g
       transform="translate(-48.176373,-347.04279)"
       id="g10360">
      <g
         id="g10362">
        <path
           d="m 30.186,738.267 c 0.234,-0.289 0.498,-0.669 0.792,-1.141 0.294,-0.47 0.581,-0.975 0.86,-1.511 0.28,-0.536 0.54,-1.079 0.776,-1.63 0.239,-0.55 0.423,-1.045 0.554,-1.483 h 1.33 c -0.206,0.644 -0.467,1.306 -0.785,1.987 -0.318,0.681 -0.66,1.342 -1.028,1.98 -0.369,0.639 -0.752,1.243 -1.148,1.811 -0.396,0.57 -0.776,1.068 -1.14,1.498 h -1.162 c -0.103,-0.801 -0.194,-1.615 -0.272,-2.441 -0.08,-0.825 -0.129,-1.662 -0.148,-2.512 -0.187,0.42 -0.396,0.854 -0.628,1.301 -0.234,0.448 -0.479,0.891 -0.736,1.33 -0.256,0.438 -0.517,0.855 -0.783,1.252 -0.267,0.396 -0.52,0.754 -0.763,1.07 h -1.162 c -0.196,-0.961 -0.354,-2.057 -0.475,-3.289 -0.122,-1.23 -0.191,-2.56 -0.21,-3.987 h 1.301 c 0.01,0.438 0.021,0.914 0.035,1.428 0.014,0.513 0.034,1.028 0.064,1.546 0.027,0.518 0.062,1.02 0.105,1.504 0.041,0.485 0.091,0.914 0.146,1.287 0.289,-0.409 0.574,-0.855 0.854,-1.336 0.28,-0.479 0.551,-0.973 0.811,-1.477 0.262,-0.502 0.502,-1.008 0.722,-1.511 0.219,-0.503 0.408,-0.983 0.566,-1.441 h 1.176 c 0,0.42 0.007,0.87 0.021,1.351 0.014,0.481 0.037,0.973 0.071,1.477 0.032,0.504 0.068,1.004 0.112,1.504 0.039,0.499 0.089,0.977 0.144,1.433 z"
           id="path10364"
           inkscape:connector-curvature="0"
           style="fill:#4d4d4d" />
        <path
           d="m 36.94,739.961 c -0.476,0 -0.886,-0.068 -1.232,-0.202 -0.345,-0.137 -0.634,-0.323 -0.868,-0.561 -0.232,-0.238 -0.405,-0.516 -0.517,-0.833 -0.111,-0.317 -0.168,-0.652 -0.168,-1.008 0,-0.652 0.098,-1.282 0.294,-1.89 0.196,-0.605 0.476,-1.142 0.84,-1.609 0.363,-0.465 0.806,-0.836 1.329,-1.111 0.522,-0.275 1.115,-0.412 1.777,-0.412 0.383,0 0.71,0.049 0.986,0.146 0.276,0.098 0.499,0.231 0.672,0.398 0.173,0.168 0.301,0.362 0.385,0.581 0.084,0.22 0.125,0.444 0.125,0.679 0,0.438 -0.08,0.812 -0.237,1.119 -0.159,0.308 -0.369,0.562 -0.631,0.764 -0.261,0.199 -0.566,0.355 -0.916,0.467 -0.351,0.113 -0.714,0.199 -1.092,0.26 -0.377,0.061 -0.759,0.105 -1.146,0.133 -0.387,0.028 -0.753,0.052 -1.099,0.07 -0.01,0.074 -0.015,0.136 -0.015,0.182 0,0.047 0,0.084 0,0.112 0,0.214 0.026,0.418 0.078,0.608 0.051,0.191 0.147,0.359 0.287,0.504 0.14,0.145 0.333,0.258 0.581,0.343 0.248,0.085 0.572,0.126 0.972,0.126 0.178,0 0.362,-0.017 0.554,-0.05 0.19,-0.032 0.372,-0.073 0.544,-0.125 0.173,-0.052 0.325,-0.103 0.456,-0.153 0.129,-0.052 0.228,-0.101 0.293,-0.147 l 0.112,1.104 c -0.187,0.104 -0.487,0.213 -0.902,0.329 -0.415,0.116 -0.902,0.176 -1.462,0.176 z m -1.33,-4.003 c 0.542,-0.018 1.037,-0.053 1.484,-0.105 0.448,-0.051 0.835,-0.139 1.162,-0.265 0.327,-0.126 0.58,-0.296 0.762,-0.511 0.182,-0.215 0.273,-0.494 0.273,-0.84 0,-0.084 -0.016,-0.174 -0.049,-0.266 -0.033,-0.094 -0.089,-0.18 -0.167,-0.26 -0.08,-0.078 -0.187,-0.145 -0.322,-0.195 -0.136,-0.051 -0.311,-0.076 -0.525,-0.076 -0.326,0 -0.632,0.069 -0.916,0.209 -0.284,0.141 -0.54,0.324 -0.763,0.553 -0.224,0.229 -0.416,0.495 -0.574,0.799 -0.16,0.303 -0.28,0.621 -0.365,0.957 z"
           id="path10366"
           inkscape:connector-curvature="0"
           style="fill:#4d4d4d" />
        <path
           d="m 45.658,736.574 c -0.046,0.204 -0.093,0.405 -0.14,0.601 -0.047,0.196 -0.07,0.383 -0.07,0.561 0,0.318 0.077,0.57 0.232,0.756 0.152,0.186 0.439,0.303 0.859,0.35 l -0.294,1.064 c -0.382,-0.01 -0.707,-0.068 -0.973,-0.176 -0.265,-0.107 -0.48,-0.25 -0.643,-0.428 -0.164,-0.176 -0.282,-0.387 -0.357,-0.629 -0.074,-0.242 -0.112,-0.508 -0.112,-0.797 0,-0.216 0.018,-0.438 0.057,-0.672 0.037,-0.234 0.088,-0.477 0.152,-0.729 l 1.764,-7.332 1.356,-0.224 -1.831,7.655 z"
           id="path10368"
           inkscape:connector-curvature="0"
           style="fill:#4d4d4d" />
        <path
           d="m 49.937,739.961 c -0.765,0 -1.365,-0.228 -1.798,-0.679 -0.434,-0.453 -0.651,-1.076 -0.651,-1.869 0,-0.541 0.077,-1.109 0.231,-1.707 0.154,-0.596 0.4,-1.146 0.735,-1.65 0.335,-0.504 0.77,-0.92 1.301,-1.245 0.532,-0.327 1.175,-0.491 1.931,-0.491 0.765,0 1.364,0.227 1.798,0.679 0.433,0.454 0.65,1.076 0.65,1.869 0,0.54 -0.076,1.11 -0.231,1.707 -0.153,0.597 -0.398,1.147 -0.733,1.651 -0.337,0.503 -0.77,0.918 -1.303,1.246 -0.531,0.325 -1.175,0.489 -1.93,0.489 z m 0.225,-1.107 c 0.419,0 0.795,-0.12 1.125,-0.363 0.333,-0.242 0.611,-0.553 0.84,-0.932 0.228,-0.376 0.403,-0.795 0.524,-1.251 0.122,-0.458 0.182,-0.901 0.182,-1.329 0,-0.467 -0.105,-0.842 -0.314,-1.127 -0.21,-0.285 -0.563,-0.427 -1.058,-0.427 -0.418,0 -0.794,0.122 -1.125,0.364 -0.332,0.242 -0.612,0.553 -0.839,0.93 -0.229,0.379 -0.403,0.795 -0.525,1.254 -0.122,0.456 -0.182,0.898 -0.182,1.328 0,0.467 0.106,0.842 0.315,1.126 0.209,0.285 0.561,0.427 1.057,0.427 z"
           id="path10370"
           inkscape:connector-curvature="0"
           style="fill:#4d4d4d" />
        <path
           d="m 56.206,739.778 c -0.111,-0.484 -0.216,-1.01 -0.314,-1.574 -0.098,-0.564 -0.189,-1.156 -0.273,-1.777 -0.083,-0.62 -0.155,-1.262 -0.216,-1.924 -0.061,-0.662 -0.1,-1.329 -0.118,-2.001 h 1.314 c 0.01,0.458 0.03,0.945 0.057,1.462 0.027,0.518 0.067,1.037 0.118,1.553 0.053,0.52 0.109,1.018 0.176,1.498 0.064,0.48 0.134,0.916 0.209,1.309 0.28,-0.354 0.572,-0.771 0.875,-1.253 0.303,-0.48 0.595,-0.983 0.875,-1.511 0.28,-0.528 0.536,-1.057 0.77,-1.588 0.234,-0.531 0.419,-1.022 0.56,-1.47 h 1.314 c -0.205,0.616 -0.463,1.255 -0.776,1.917 -0.312,0.662 -0.655,1.314 -1.027,1.952 -0.374,0.64 -0.763,1.253 -1.168,1.841 -0.407,0.588 -0.801,1.109 -1.183,1.566 h -1.193 z"
           id="path10372"
           inkscape:connector-curvature="0"
           style="fill:#4d4d4d" />
        <path
           d="m 63.996,739.961 c -0.475,0 -0.886,-0.068 -1.231,-0.202 -0.346,-0.137 -0.636,-0.323 -0.868,-0.561 -0.234,-0.238 -0.405,-0.516 -0.517,-0.833 -0.113,-0.317 -0.168,-0.652 -0.168,-1.008 0,-0.652 0.098,-1.282 0.293,-1.89 0.196,-0.605 0.476,-1.142 0.839,-1.609 0.363,-0.465 0.808,-0.836 1.329,-1.111 0.524,-0.275 1.116,-0.412 1.778,-0.412 0.383,0 0.712,0.049 0.987,0.146 0.274,0.098 0.499,0.231 0.672,0.398 0.172,0.168 0.301,0.362 0.384,0.581 0.084,0.22 0.126,0.444 0.126,0.679 0,0.438 -0.08,0.812 -0.238,1.119 -0.158,0.308 -0.369,0.562 -0.63,0.764 -0.262,0.199 -0.567,0.355 -0.917,0.467 -0.35,0.113 -0.713,0.199 -1.092,0.26 -0.376,0.061 -0.759,0.105 -1.147,0.133 -0.387,0.028 -0.752,0.052 -1.099,0.07 -0.009,0.074 -0.014,0.136 -0.014,0.182 0,0.047 0,0.084 0,0.112 0,0.214 0.025,0.418 0.078,0.608 0.05,0.191 0.146,0.359 0.287,0.504 0.139,0.145 0.332,0.258 0.581,0.343 0.246,0.085 0.57,0.126 0.972,0.126 0.177,0 0.361,-0.017 0.552,-0.05 0.19,-0.032 0.373,-0.073 0.545,-0.125 0.173,-0.052 0.324,-0.103 0.456,-0.153 0.129,-0.052 0.228,-0.101 0.293,-0.147 l 0.112,1.104 c -0.187,0.104 -0.487,0.213 -0.902,0.329 -0.415,0.116 -0.902,0.176 -1.461,0.176 z m -1.329,-4.003 c 0.541,-0.018 1.035,-0.053 1.483,-0.105 0.449,-0.051 0.836,-0.139 1.162,-0.265 0.326,-0.126 0.581,-0.296 0.763,-0.511 0.182,-0.215 0.273,-0.494 0.273,-0.84 0,-0.084 -0.018,-0.174 -0.05,-0.266 -0.032,-0.094 -0.088,-0.18 -0.167,-0.26 -0.079,-0.078 -0.187,-0.145 -0.322,-0.195 -0.134,-0.051 -0.31,-0.076 -0.524,-0.076 -0.327,0 -0.633,0.069 -0.916,0.209 -0.285,0.141 -0.539,0.324 -0.764,0.553 -0.224,0.229 -0.415,0.495 -0.573,0.799 -0.16,0.303 -0.281,0.621 -0.365,0.957 z"
           id="path10374"
           inkscape:connector-curvature="0"
           style="fill:#4d4d4d" />
        <path
           d="m 75.54,732.264 c 0.448,0 0.836,0.08 1.161,0.238 0.327,0.159 0.597,0.374 0.813,0.644 0.214,0.271 0.372,0.589 0.475,0.951 0.103,0.365 0.154,0.757 0.154,1.176 0,0.645 -0.119,1.253 -0.356,1.826 -0.238,0.574 -0.561,1.073 -0.973,1.498 -0.411,0.424 -0.896,0.76 -1.455,1.006 -0.559,0.248 -1.166,0.371 -1.818,0.371 -0.084,0 -0.232,-0.002 -0.442,-0.006 -0.21,-0.004 -0.45,-0.026 -0.72,-0.062 -0.271,-0.038 -0.559,-0.094 -0.861,-0.169 -0.303,-0.073 -0.59,-0.177 -0.861,-0.308 l 2.421,-10.173 2.168,-0.336 -0.867,3.61 c 0.186,-0.084 0.373,-0.148 0.559,-0.195 0.187,-0.047 0.387,-0.071 0.602,-0.071 z m -1.819,5.989 c 0.327,0 0.635,-0.079 0.924,-0.237 0.289,-0.158 0.54,-0.371 0.749,-0.637 0.209,-0.267 0.376,-0.567 0.497,-0.903 0.121,-0.336 0.182,-0.686 0.182,-1.049 0,-0.447 -0.075,-0.798 -0.224,-1.049 -0.149,-0.252 -0.425,-0.379 -0.826,-0.379 -0.131,0 -0.301,0.024 -0.51,0.07 -0.21,0.047 -0.398,0.145 -0.567,0.295 l -0.923,3.832 c 0.056,0.01 0.104,0.02 0.146,0.029 0.041,0.009 0.087,0.016 0.132,0.02 0.047,0.006 0.103,0.008 0.168,0.008 0.065,0 0.149,0 0.252,0 z"
           id="path10376"
           inkscape:connector-curvature="0"
           style="fill:#4d4d4d" />
        <path
           d="M 80.392,739.778 H 78.32 l 1.749,-7.359 h 2.085 l -1.762,7.359 z m 1.007,-8.256 c -0.29,0 -0.551,-0.086 -0.784,-0.258 -0.234,-0.172 -0.351,-0.438 -0.351,-0.791 0,-0.196 0.04,-0.381 0.118,-0.553 0.08,-0.174 0.185,-0.322 0.315,-0.447 0.131,-0.127 0.283,-0.227 0.455,-0.302 0.173,-0.075 0.358,-0.112 0.554,-0.112 0.289,0 0.55,0.086 0.783,0.259 0.232,0.173 0.35,0.437 0.35,0.791 0,0.196 -0.04,0.38 -0.12,0.553 -0.079,0.173 -0.183,0.321 -0.314,0.448 -0.129,0.125 -0.282,0.225 -0.454,0.301 -0.173,0.074 -0.356,0.111 -0.552,0.111 z"
           id="path10378"
           inkscape:connector-curvature="0"
           style="fill:#4d4d4d" />
        <path
           d="m 83.97,730.585 2.169,-0.336 -0.533,2.17 h 2.323 l -0.419,1.707 h -2.309 l -0.615,2.574 c -0.057,0.215 -0.089,0.415 -0.098,0.602 -0.01,0.187 0.014,0.348 0.069,0.482 0.056,0.136 0.156,0.24 0.301,0.314 0.145,0.075 0.352,0.113 0.623,0.113 0.223,0 0.44,-0.021 0.651,-0.064 0.209,-0.041 0.421,-0.1 0.636,-0.174 l 0.155,1.596 c -0.28,0.102 -0.583,0.191 -0.91,0.266 -0.326,0.074 -0.714,0.111 -1.161,0.111 -0.644,0 -1.142,-0.096 -1.498,-0.286 -0.355,-0.191 -0.606,-0.454 -0.756,-0.784 -0.148,-0.33 -0.214,-0.711 -0.196,-1.141 0.02,-0.429 0.084,-0.881 0.196,-1.357 l 1.372,-5.793 z"
           id="path10380"
           inkscape:connector-curvature="0"
           style="fill:#4d4d4d" />
        <path
           d="m 87.838,736.841 c 0,-0.635 0.103,-1.232 0.308,-1.791 0.205,-0.561 0.5,-1.051 0.882,-1.471 0.381,-0.419 0.846,-0.75 1.393,-0.993 0.544,-0.242 1.154,-0.364 1.825,-0.364 0.42,0 0.796,0.04 1.127,0.119 0.331,0.08 0.631,0.186 0.902,0.314 l -0.714,1.624 c -0.187,-0.075 -0.38,-0.142 -0.581,-0.202 -0.201,-0.062 -0.445,-0.092 -0.735,-0.092 -0.691,0 -1.238,0.238 -1.644,0.713 -0.405,0.477 -0.609,1.115 -0.609,1.918 0,0.477 0.103,0.861 0.309,1.154 0.205,0.294 0.583,0.441 1.133,0.441 0.271,0 0.533,-0.029 0.784,-0.084 0.253,-0.057 0.476,-0.127 0.672,-0.21 l 0.155,1.665 c -0.262,0.102 -0.551,0.193 -0.867,0.273 -0.318,0.078 -0.696,0.117 -1.135,0.117 -0.578,0 -1.068,-0.084 -1.469,-0.251 -0.401,-0.169 -0.732,-0.394 -0.993,-0.679 -0.262,-0.285 -0.451,-0.619 -0.567,-1.001 -0.117,-0.381 -0.176,-0.781 -0.176,-1.2 z"
           id="path10382"
           inkscape:connector-curvature="0"
           style="fill:#4d4d4d" />
        <path
           d="m 97.038,739.974 c -0.494,0 -0.923,-0.074 -1.288,-0.224 -0.363,-0.149 -0.664,-0.358 -0.902,-0.63 -0.238,-0.27 -0.417,-0.59 -0.539,-0.957 -0.122,-0.369 -0.181,-0.777 -0.181,-1.225 0,-0.561 0.09,-1.121 0.272,-1.68 0.181,-0.561 0.45,-1.064 0.805,-1.512 0.353,-0.447 0.788,-0.813 1.3,-1.099 0.513,-0.284 1.101,-0.427 1.763,-0.427 0.485,0 0.912,0.075 1.281,0.225 0.368,0.148 0.671,0.359 0.91,0.63 0.237,0.271 0.417,0.59 0.538,0.958 0.122,0.369 0.182,0.777 0.182,1.225 0,0.559 -0.089,1.119 -0.265,1.68 -0.176,0.559 -0.438,1.062 -0.783,1.512 -0.345,0.447 -0.777,0.812 -1.295,1.098 -0.518,0.284 -1.117,0.426 -1.798,0.426 z m 1.035,-5.989 c -0.307,0 -0.578,0.089 -0.811,0.266 -0.233,0.178 -0.43,0.402 -0.588,0.672 -0.159,0.271 -0.278,0.566 -0.357,0.889 -0.079,0.323 -0.119,0.627 -0.119,0.916 0,0.467 0.076,0.83 0.223,1.093 0.15,0.261 0.42,0.392 0.812,0.392 0.308,0 0.578,-0.09 0.812,-0.268 0.232,-0.176 0.428,-0.4 0.587,-0.671 0.159,-0.271 0.278,-0.566 0.358,-0.889 0.079,-0.321 0.119,-0.628 0.119,-0.917 0,-0.465 -0.076,-0.83 -0.225,-1.09 -0.149,-0.262 -0.419,-0.393 -0.811,-0.393 z"
           id="path10384"
           inkscape:connector-curvature="0"
           style="fill:#4d4d4d" />
        <path
           d="m 103.437,739.778 h -2.073 l 1.749,-7.359 h 2.086 l -1.762,7.359 z m 1.006,-8.256 c -0.289,0 -0.551,-0.086 -0.783,-0.258 -0.233,-0.172 -0.351,-0.438 -0.351,-0.791 0,-0.196 0.041,-0.381 0.12,-0.553 0.078,-0.174 0.184,-0.322 0.315,-0.447 0.13,-0.127 0.283,-0.227 0.455,-0.302 0.172,-0.075 0.356,-0.112 0.552,-0.112 0.289,0 0.551,0.086 0.783,0.259 0.234,0.173 0.351,0.437 0.351,0.791 0,0.196 -0.041,0.38 -0.12,0.553 -0.079,0.173 -0.184,0.321 -0.314,0.448 -0.131,0.125 -0.282,0.225 -0.454,0.301 -0.173,0.074 -0.358,0.111 -0.554,0.111 z"
           id="path10386"
           inkscape:connector-curvature="0"
           style="fill:#4d4d4d" />
        <path
           d="m 106.691,732.753 c 0.157,-0.045 0.333,-0.1 0.524,-0.16 0.191,-0.06 0.405,-0.115 0.645,-0.167 0.237,-0.052 0.503,-0.094 0.797,-0.127 0.294,-0.032 0.627,-0.049 1,-0.049 1.092,0 1.845,0.317 2.261,0.952 0.416,0.635 0.488,1.502 0.218,2.602 l -0.953,3.975 h -2.084 l 0.923,-3.89 c 0.056,-0.243 0.1,-0.479 0.133,-0.708 0.033,-0.227 0.031,-0.428 -0.008,-0.601 -0.037,-0.173 -0.123,-0.312 -0.258,-0.421 -0.137,-0.106 -0.344,-0.16 -0.624,-0.16 -0.27,0 -0.544,0.029 -0.824,0.084 l -1.358,5.695 h -2.086 l 1.694,-7.025 z"
           id="path10388"
           inkscape:connector-curvature="0"
           style="fill:#4d4d4d" />
      </g>
      <g
         id="g10390">
        <g
           id="g10392">
          <circle
             d="m 112.294,699.71002 c 0,13.10406 -10.62294,23.727 -23.726999,23.727 -13.10406,0 -23.726999,-10.62294 -23.726999,-23.727 0,-13.10406 10.622939,-23.727 23.726999,-23.727 13.104059,0 23.726999,10.62294 23.726999,23.727 z"
             cx="88.567001"
             cy="699.71002"
             r="23.726999"
             id="circle10394"
             sodipodi:cx="88.567001"
             sodipodi:cy="699.71002"
             sodipodi:rx="23.726999"
             sodipodi:ry="23.726999"
             style="fill:#f7931a" />
          <g
             id="g10396">
            <g
               id="g10398">
              <path
                 d="m 99.027,696.329 c 0.473,-3.161 -1.931,-4.859 -5.22,-5.994 l 1.066,-4.275 -2.602,-0.648 -1.039,4.164 c -0.687,-0.17 -1.388,-0.33 -2.088,-0.49 l 1.045,-4.193 -2.603,-0.648 -1.066,4.275 c -0.566,-0.128 -1.124,-0.254 -1.663,-0.388 l 0.004,-0.015 -3.594,-0.896 -0.693,2.779 c 0,0 1.934,0.443 1.893,0.473 1.056,0.262 1.247,0.963 1.213,1.516 l -1.215,4.873 c 0.072,0.018 0.166,0.045 0.272,0.086 -0.088,-0.021 -0.183,-0.045 -0.276,-0.068 l -1.703,6.829 c -0.129,0.319 -0.459,0.802 -1.193,0.618 0.023,0.036 -1.894,-0.472 -1.894,-0.472 l -1.295,2.979 3.392,0.846 c 0.627,0.156 1.247,0.32 1.854,0.479 l -1.079,4.326 2.604,0.649 1.067,-4.281 c 0.709,0.191 1.401,0.372 2.076,0.54 l -1.062,4.26 2.603,0.648 1.077,-4.318 c 4.441,0.84 7.782,0.501 9.188,-3.516 1.129,-3.235 -0.057,-5.098 -2.394,-6.316 1.703,-0.394 2.984,-1.511 3.325,-3.822 z m -5.949,8.34 c -0.807,3.236 -6.249,1.486 -8.014,1.047 l 1.428,-5.729 c 1.765,0.44 7.426,1.311 6.586,4.682 z m 0.805,-8.388 c -0.733,2.94 -5.267,1.448 -6.737,1.081 l 1.296,-5.201 c 1.472,0.366 6.206,1.051 5.441,4.12 z"
                 id="path10400"
                 inkscape:connector-curvature="0"
                 style="fill:#ffffff" />
            </g>
          </g>
        </g>
        <path
           d="m 71.515,689.609 c 0,14.751 -23.729,33.208 -23.729,33.208 0,0 -23.729,-18.457 -23.729,-33.208 0,-14.749 11.866,-18.915 23.729,-5.56 11.865,-13.355 23.729,-7.79 23.729,5.56 z"
           id="path10402"
           inkscape:connector-curvature="0"
           style="fill:#c1272d" />
      </g>
    </g>
  </g>
</svg>
